<svg version="1.1" id="Layer_1" xmlns="http://www.w3.org/2000/svg" xmlns:xlink="http://www.w3.org/1999/xlink" viewBox="0 0 64 64" xml:space="preserve">
<g>
    <path d="M32,38c-1.1,0-2.2-0.4-3-1.2L1.2,9.1C1.4,9.2,1.7,9.2,2,9.2h60c0.3,0,0.6,0,0.8-0.1L35,36.8
        C34.2,37.6,33.1,38,32,38z M1.2,6.1c0,0.1,0,0.2,0,0.3v44.5c0,3,2.4,5.4,5.4,5.4h50.7c3,0,5.4-2.4,5.4-5.4V6.4
        c0-0.1,0-0.2,0-0.3c-0.1,0-0.2,0-0.3,0H1.4C1.3,6.1,1.2,6.1,1.2,6.1z M62,5.2c0.5,0.3,1,0.6,1.5,1.1c0.2,0.2,0.3,0.5,0.5,0.7
        c0,0,0,0.1,0,0.1v44.5c0,4.2-3.4,7.6-7.6,7.6H6.6C2.4,59.2-1,55.8-1,51.6V6.4c0-0.1,0-0.2,0-0.2C-1,6.1-0.9,5.8-0.7,5.6
        c0.5-0.5,1-0.9,1.6-1.2C2.4,4.1,4.4,4,6.4,4h50.3C59.6,4,61.7,4.1,62,5.2z"/>
</g>
</svg>
